<?xml version="1.0" encoding="UTF-8" standalone="no"?><!DOCTYPE svg PUBLIC "-//W3C//DTD SVG 1.1//EN" "http://www.w3.org/Graphics/SVG/1.1/DTD/svg11.dtd"><!-- Generated by graphviz version 2.40.1 (20161225.0304)
 --><!-- Title: A&#45;1.c.012t.cfg Pages: 1 --><svg xmlns="http://www.w3.org/2000/svg" xmlns:xlink="http://www.w3.org/1999/xlink" width="187pt" height="834pt" viewBox="0.00 0.00 187.14 833.80">
<g id="graph0" class="graph" transform="scale(1 1) rotate(0) translate(4 829.8)">
<title>A-1.c.012t.cfg</title>
<polygon fill="#ffffff" stroke="transparent" points="-4,4 -4,-829.8 183.1359,-829.8 183.1359,4 -4,4"/>
<g id="clust1" class="cluster">
<title>cluster_main</title>
<polygon fill="none" stroke="#000000" stroke-dasharray="5,2" points="31.1359,-8 31.1359,-817.8 171.1359,-817.8 171.1359,-8 31.1359,-8"/>
<text text-anchor="middle" x="101.1359" y="-801.2" font-family="Times,serif" font-size="14.00" fill="#000000">main ()</text>
</g>
<!-- fn_0_basic_block_0 -->
<g id="node1" class="node">
<title>fn_0_basic_block_0</title>
<polygon fill="#ffffff" stroke="#000000" points="102.1359,-785 40.8959,-767 102.1359,-749 163.3758,-767 102.1359,-785"/>
<polyline fill="none" stroke="#000000" points="52.4089,-770.384 52.4089,-763.616 "/>
<polyline fill="none" stroke="#000000" points="90.6229,-752.384 113.6488,-752.384 "/>
<polyline fill="none" stroke="#000000" points="151.8629,-763.616 151.8629,-770.384 "/>
<polyline fill="none" stroke="#000000" points="113.6488,-781.616 90.6229,-781.616 "/>
<text text-anchor="middle" x="102.1359" y="-762.8" font-family="Times,serif" font-size="14.00" fill="#000000">ENTRY</text>
</g>
<!-- fn_0_basic_block_1 -->
<g id="node2" class="node">
<title>fn_0_basic_block_1</title>
<polygon fill="#ffffff" stroke="#000000" points="111.1359,-52 64.2361,-34 111.1359,-16 158.0356,-34 111.1359,-52"/>
<polyline fill="none" stroke="#000000" points="75.4393,-38.2998 75.4393,-29.7002 "/>
<polyline fill="none" stroke="#000000" points="99.9326,-20.2998 122.3391,-20.2998 "/>
<polyline fill="none" stroke="#000000" points="146.8324,-29.7002 146.8324,-38.2998 "/>
<polyline fill="none" stroke="#000000" points="122.3391,-47.7002 99.9326,-47.7002 "/>
<text text-anchor="middle" x="111.1359" y="-29.8" font-family="Times,serif" font-size="14.00" fill="#000000">EXIT</text>
</g>
<!-- fn_0_basic_block_0&#45;&gt;fn_0_basic_block_1 -->
<!-- fn_0_basic_block_2 -->
<g id="node3" class="node">
<title>fn_0_basic_block_2</title>
<polygon fill="#d3d3d3" stroke="#000000" points="59.2697,-88.5 59.2697,-712.5 163.0021,-712.5 163.0021,-88.5 59.2697,-88.5"/>
<text text-anchor="start" x="67.2697" y="-695.9" font-family="Times,serif" font-size="14.00" fill="#000000">&lt;bb 2&gt;:</text>
<text text-anchor="middle" x="111.1359" y="-679.1" font-family="Times,serif" font-size="14.00" fill="#000000"></text>
<polyline fill="none" stroke="#000000" points="59.2697,-670.9 163.0021,-670.9 "/>
<text text-anchor="start" x="67.2697" y="-654.3" font-family="Times,serif" font-size="14.00" fill="#000000">p = 6;</text>
<text text-anchor="middle" x="111.1359" y="-637.5" font-family="Times,serif" font-size="14.00" fill="#000000"></text>
<polyline fill="none" stroke="#000000" points="59.2697,-629.3 163.0021,-629.3 "/>
<text text-anchor="start" x="67.2697" y="-612.7" font-family="Times,serif" font-size="14.00" fill="#000000">a = 10;</text>
<text text-anchor="middle" x="111.1359" y="-595.9" font-family="Times,serif" font-size="14.00" fill="#000000"></text>
<polyline fill="none" stroke="#000000" points="59.2697,-587.7 163.0021,-587.7 "/>
<text text-anchor="start" x="67.2697" y="-571.1" font-family="Times,serif" font-size="14.00" fill="#000000">b = 20;</text>
<text text-anchor="middle" x="111.1359" y="-554.3" font-family="Times,serif" font-size="14.00" fill="#000000"></text>
<polyline fill="none" stroke="#000000" points="59.2697,-546.1 163.0021,-546.1 "/>
<text text-anchor="start" x="67.2697" y="-529.5" font-family="Times,serif" font-size="14.00" fill="#000000">_1 = a * b;</text>
<text text-anchor="middle" x="111.1359" y="-512.7" font-family="Times,serif" font-size="14.00" fill="#000000"></text>
<polyline fill="none" stroke="#000000" points="59.2697,-504.5 163.0021,-504.5 "/>
<text text-anchor="start" x="67.2697" y="-487.9" font-family="Times,serif" font-size="14.00" fill="#000000">c = _1 + 25;</text>
<text text-anchor="middle" x="111.1359" y="-471.1" font-family="Times,serif" font-size="14.00" fill="#000000"></text>
<polyline fill="none" stroke="#000000" points="59.2697,-462.9 163.0021,-462.9 "/>
<text text-anchor="start" x="67.2697" y="-446.3" font-family="Times,serif" font-size="14.00" fill="#000000">p = 6;</text>
<text text-anchor="middle" x="111.1359" y="-429.5" font-family="Times,serif" font-size="14.00" fill="#000000"></text>
<polyline fill="none" stroke="#000000" points="59.2697,-421.3 163.0021,-421.3 "/>
<text text-anchor="start" x="67.2697" y="-404.7" font-family="Times,serif" font-size="14.00" fill="#000000">q = Z;</text>
<text text-anchor="middle" x="111.1359" y="-387.9" font-family="Times,serif" font-size="14.00" fill="#000000"></text>
<polyline fill="none" stroke="#000000" points="59.2697,-379.7 163.0021,-379.7 "/>
<text text-anchor="start" x="67.2697" y="-363.1" font-family="Times,serif" font-size="14.00" fill="#000000">r = 3.45e+1;</text>
<text text-anchor="middle" x="111.1359" y="-346.3" font-family="Times,serif" font-size="14.00" fill="#000000"></text>
<polyline fill="none" stroke="#000000" points="59.2697,-338.1 163.0021,-338.1 "/>
<text text-anchor="start" x="67.2697" y="-321.5" font-family="Times,serif" font-size="14.00" fill="#000000">_2 = (int) r;</text>
<text text-anchor="middle" x="111.1359" y="-304.7" font-family="Times,serif" font-size="14.00" fill="#000000"></text>
<polyline fill="none" stroke="#000000" points="59.2697,-296.5 163.0021,-296.5 "/>
<text text-anchor="start" x="67.2697" y="-279.9" font-family="Times,serif" font-size="14.00" fill="#000000">Z = _2;</text>
<text text-anchor="middle" x="111.1359" y="-263.1" font-family="Times,serif" font-size="14.00" fill="#000000"></text>
<polyline fill="none" stroke="#000000" points="59.2697,-254.9 163.0021,-254.9 "/>
<text text-anchor="start" x="67.2697" y="-238.3" font-family="Times,serif" font-size="14.00" fill="#000000">Z.0_3 = Z;</text>
<text text-anchor="middle" x="111.1359" y="-221.5" font-family="Times,serif" font-size="14.00" fill="#000000"></text>
<polyline fill="none" stroke="#000000" points="59.2697,-213.3 163.0021,-213.3 "/>
<text text-anchor="start" x="67.2697" y="-196.7" font-family="Times,serif" font-size="14.00" fill="#000000">_4 = Z.0_3 + 1;</text>
<text text-anchor="middle" x="111.1359" y="-179.9" font-family="Times,serif" font-size="14.00" fill="#000000"></text>
<polyline fill="none" stroke="#000000" points="59.2697,-171.7 163.0021,-171.7 "/>
<text text-anchor="start" x="67.2697" y="-155.1" font-family="Times,serif" font-size="14.00" fill="#000000">Z = _4;</text>
<text text-anchor="middle" x="111.1359" y="-138.3" font-family="Times,serif" font-size="14.00" fill="#000000"></text>
<polyline fill="none" stroke="#000000" points="59.2697,-130.1 163.0021,-130.1 "/>
<text text-anchor="start" x="67.2697" y="-113.5" font-family="Times,serif" font-size="14.00" fill="#000000">return;</text>
<text text-anchor="middle" x="111.1359" y="-96.7" font-family="Times,serif" font-size="14.00" fill="#000000"></text>
</g>
<!-- fn_0_basic_block_0&#45;&gt;fn_0_basic_block_2 -->
<g id="edge1" class="edge">
<title>fn_0_basic_block_0:s-&gt;fn_0_basic_block_2:n</title>
<path fill="none" stroke="#0000ff" stroke-width="2" d="M102.1359,-749C102.1359,-736.3384 107.3044,-731.5009 109.8079,-722.6292"/>
<polygon fill="#0000ff" stroke="#0000ff" stroke-width="2" points="113.3062,-722.8702 111.1359,-712.5 106.3655,-721.9601 113.3062,-722.8702"/>
</g>
<!-- fn_0_basic_block_2&#45;&gt;fn_0_basic_block_1 -->
<g id="edge2" class="edge">
<title>fn_0_basic_block_2:s-&gt;fn_0_basic_block_1:n</title>
<path fill="none" stroke="#000000" stroke-width="2" d="M111.1359,-88.5C111.1359,-76.3333 111.1359,-71.0104 111.1359,-62.2656"/>
<polygon fill="#000000" stroke="#000000" stroke-width="2" points="114.636,-62 111.1359,-52 107.636,-62 114.636,-62"/>
</g>
</g>
</svg>